<mxfile host="app.diagrams.net" modified="2023-11-05T06:03:10.253Z" agent="Mozilla/5.0 (Windows NT 10.0; Win64; x64) AppleWebKit/537.36 (KHTML, like Gecko) Chrome/118.0.0.0 Safari/537.36" etag="E-L6LXyZbOIAARn0t9pq" version="22.0.8" type="device">
  <diagram id="U6g97aFuWpyPlbbc_JyS" name="第 1 页">
    <mxGraphModel dx="2998" dy="1029" grid="1" gridSize="10" guides="1" tooltips="1" connect="1" arrows="1" fold="1" page="1" pageScale="1" pageWidth="827" pageHeight="1169" math="0" shadow="0">
      <root>
        <mxCell id="0" />
        <mxCell id="1" parent="0" />
        <mxCell id="UEqttB7jB4Lhrfj938VX-1" value="" style="whiteSpace=wrap;html=1;aspect=fixed;sketch=1;curveFitting=1;jiggle=2;labelBackgroundColor=none;" parent="1" vertex="1">
          <mxGeometry x="-30" y="40" width="970" height="970" as="geometry" />
        </mxCell>
        <mxCell id="UEqttB7jB4Lhrfj938VX-5" value="" style="verticalLabelPosition=bottom;verticalAlign=top;html=1;shape=mxgraph.basic.patternFillRect;fillStyle=diagGrid;step=5;fillStrokeWidth=0.2;fillStrokeColor=#dddddd;sketch=1;curveFitting=1;jiggle=2;labelBackgroundColor=none;fillColor=#b1ddf0;strokeColor=#10739e;" parent="1" vertex="1">
          <mxGeometry x="-30" y="40" width="970" height="200" as="geometry" />
        </mxCell>
        <mxCell id="UEqttB7jB4Lhrfj938VX-16" value="&lt;b&gt;&lt;font style=&quot;font-size: 38px;&quot;&gt;BANNER&lt;/font&gt;&lt;/b&gt;" style="text;strokeColor=none;fillColor=none;align=left;verticalAlign=middle;spacingLeft=4;spacingRight=4;overflow=hidden;points=[[0,0.5],[1,0.5]];portConstraint=eastwest;rotatable=0;whiteSpace=wrap;html=1;fontSize=20;fontFamily=Architects Daughter;" parent="1" vertex="1">
          <mxGeometry x="30" y="70" width="240" height="50" as="geometry" />
        </mxCell>
        <mxCell id="UEqttB7jB4Lhrfj938VX-34" value="" style="rounded=1;whiteSpace=wrap;html=1;sketch=1;hachureGap=4;jiggle=2;curveFitting=1;fontFamily=Architects Daughter;fontSource=https%3A%2F%2Ffonts.googleapis.com%2Fcss%3Ffamily%3DArchitects%2BDaughter;fontSize=20;" parent="1" vertex="1">
          <mxGeometry x="395" y="379.99" width="165" height="180" as="geometry" />
        </mxCell>
        <mxCell id="UEqttB7jB4Lhrfj938VX-35" value="" style="rounded=1;whiteSpace=wrap;html=1;sketch=1;hachureGap=4;jiggle=2;curveFitting=1;fontFamily=Architects Daughter;fontSource=https%3A%2F%2Ffonts.googleapis.com%2Fcss%3Ffamily%3DArchitects%2BDaughter;fontSize=20;" parent="1" vertex="1">
          <mxGeometry x="130" y="710" width="180" height="260" as="geometry" />
        </mxCell>
        <mxCell id="UEqttB7jB4Lhrfj938VX-42" value="&lt;b&gt;&lt;font style=&quot;font-size: 43px;&quot;&gt;熱門餐廳&lt;/font&gt;&lt;/b&gt;" style="text;html=1;strokeColor=none;fillColor=none;align=center;verticalAlign=middle;whiteSpace=wrap;rounded=0;fontSize=20;fontFamily=Architects Daughter;" parent="1" vertex="1">
          <mxGeometry x="375" y="290" width="220" height="60" as="geometry" />
        </mxCell>
        <mxCell id="UEqttB7jB4Lhrfj938VX-43" value="" style="rounded=1;whiteSpace=wrap;html=1;sketch=1;hachureGap=4;jiggle=2;curveFitting=1;fontFamily=Architects Daughter;fontSource=https%3A%2F%2Ffonts.googleapis.com%2Fcss%3Ffamily%3DArchitects%2BDaughter;fontSize=20;" parent="1" vertex="1">
          <mxGeometry x="670" y="710" width="180" height="260" as="geometry" />
        </mxCell>
        <mxCell id="UEqttB7jB4Lhrfj938VX-44" value="" style="rounded=1;whiteSpace=wrap;html=1;sketch=1;hachureGap=4;jiggle=2;curveFitting=1;fontFamily=Architects Daughter;fontSource=https%3A%2F%2Ffonts.googleapis.com%2Fcss%3Ffamily%3DArchitects%2BDaughter;fontSize=20;" parent="1" vertex="1">
          <mxGeometry x="395" y="710" width="180" height="260" as="geometry" />
        </mxCell>
        <mxCell id="UEqttB7jB4Lhrfj938VX-45" value="" style="rounded=1;whiteSpace=wrap;html=1;sketch=1;hachureGap=4;jiggle=2;curveFitting=1;fontFamily=Architects Daughter;fontSource=https%3A%2F%2Ffonts.googleapis.com%2Fcss%3Ffamily%3DArchitects%2BDaughter;fontSize=20;" parent="1" vertex="1">
          <mxGeometry x="585" y="380" width="165" height="180" as="geometry" />
        </mxCell>
        <mxCell id="UEqttB7jB4Lhrfj938VX-46" value="" style="rounded=1;whiteSpace=wrap;html=1;sketch=1;hachureGap=4;jiggle=2;curveFitting=1;fontFamily=Architects Daughter;fontSource=https%3A%2F%2Ffonts.googleapis.com%2Fcss%3Ffamily%3DArchitects%2BDaughter;fontSize=20;" parent="1" vertex="1">
          <mxGeometry x="200" y="380" width="165" height="180" as="geometry" />
        </mxCell>
        <mxCell id="UEqttB7jB4Lhrfj938VX-47" value="" style="rounded=1;whiteSpace=wrap;html=1;sketch=1;hachureGap=4;jiggle=2;curveFitting=1;fontFamily=Architects Daughter;fontSource=https%3A%2F%2Ffonts.googleapis.com%2Fcss%3Ffamily%3DArchitects%2BDaughter;fontSize=20;" parent="1" vertex="1">
          <mxGeometry x="765" y="377.13" width="165" height="180" as="geometry" />
        </mxCell>
        <mxCell id="UEqttB7jB4Lhrfj938VX-48" value="" style="rounded=1;whiteSpace=wrap;html=1;sketch=1;hachureGap=4;jiggle=2;curveFitting=1;fontFamily=Architects Daughter;fontSource=https%3A%2F%2Ffonts.googleapis.com%2Fcss%3Ffamily%3DArchitects%2BDaughter;fontSize=20;" parent="1" vertex="1">
          <mxGeometry y="379.99" width="165" height="180" as="geometry" />
        </mxCell>
        <mxCell id="UEqttB7jB4Lhrfj938VX-49" value="&lt;b&gt;&lt;font style=&quot;font-size: 35px;&quot;&gt;近期活動分享&lt;/font&gt;&lt;/b&gt;" style="text;html=1;strokeColor=none;fillColor=none;align=center;verticalAlign=middle;whiteSpace=wrap;rounded=0;fontSize=20;fontFamily=Architects Daughter;" parent="1" vertex="1">
          <mxGeometry x="375" y="630" width="215" height="60" as="geometry" />
        </mxCell>
        <mxCell id="UEqttB7jB4Lhrfj938VX-51" value="店家" style="text;html=1;strokeColor=none;fillColor=none;align=center;verticalAlign=middle;whiteSpace=wrap;rounded=0;fontSize=20;fontFamily=Architects Daughter;" parent="1" vertex="1">
          <mxGeometry x="82.5" y="460" width="60" height="30" as="geometry" />
        </mxCell>
        <mxCell id="UEqttB7jB4Lhrfj938VX-52" value="店家" style="text;html=1;strokeColor=none;fillColor=none;align=center;verticalAlign=middle;whiteSpace=wrap;rounded=0;fontSize=20;fontFamily=Architects Daughter;" parent="1" vertex="1">
          <mxGeometry x="812.5" y="454.99" width="60" height="30" as="geometry" />
        </mxCell>
        <mxCell id="UEqttB7jB4Lhrfj938VX-53" value="店家" style="text;html=1;strokeColor=none;fillColor=none;align=center;verticalAlign=middle;whiteSpace=wrap;rounded=0;fontSize=20;fontFamily=Architects Daughter;" parent="1" vertex="1">
          <mxGeometry x="637.5" y="460" width="60" height="30" as="geometry" />
        </mxCell>
        <mxCell id="UEqttB7jB4Lhrfj938VX-54" value="店家" style="text;html=1;strokeColor=none;fillColor=none;align=center;verticalAlign=middle;whiteSpace=wrap;rounded=0;fontSize=20;fontFamily=Architects Daughter;" parent="1" vertex="1">
          <mxGeometry x="450" y="460" width="60" height="30" as="geometry" />
        </mxCell>
        <mxCell id="UEqttB7jB4Lhrfj938VX-55" value="店家" style="text;html=1;strokeColor=none;fillColor=none;align=center;verticalAlign=middle;whiteSpace=wrap;rounded=0;fontSize=20;fontFamily=Architects Daughter;" parent="1" vertex="1">
          <mxGeometry x="250" y="460" width="60" height="30" as="geometry" />
        </mxCell>
        <mxCell id="UEqttB7jB4Lhrfj938VX-56" value="&lt;b&gt;&lt;font style=&quot;font-size: 30px;&quot;&gt;活動-1&lt;/font&gt;&lt;/b&gt;" style="text;html=1;strokeColor=none;fillColor=none;align=center;verticalAlign=middle;whiteSpace=wrap;rounded=0;fontSize=20;fontFamily=Architects Daughter;" parent="1" vertex="1">
          <mxGeometry x="150" y="890" width="100" height="50" as="geometry" />
        </mxCell>
        <mxCell id="UEqttB7jB4Lhrfj938VX-57" value="&lt;b&gt;&lt;font style=&quot;font-size: 30px;&quot;&gt;活動-3&lt;/font&gt;&lt;/b&gt;" style="text;html=1;strokeColor=none;fillColor=none;align=center;verticalAlign=middle;whiteSpace=wrap;rounded=0;fontSize=20;fontFamily=Architects Daughter;" parent="1" vertex="1">
          <mxGeometry x="690" y="890" width="100" height="50" as="geometry" />
        </mxCell>
        <mxCell id="UEqttB7jB4Lhrfj938VX-58" value="&lt;b&gt;&lt;font style=&quot;font-size: 30px;&quot;&gt;活動-2&lt;/font&gt;&lt;/b&gt;" style="text;html=1;strokeColor=none;fillColor=none;align=center;verticalAlign=middle;whiteSpace=wrap;rounded=0;fontSize=20;fontFamily=Architects Daughter;" parent="1" vertex="1">
          <mxGeometry x="414" y="890" width="100" height="50" as="geometry" />
        </mxCell>
        <mxCell id="UEqttB7jB4Lhrfj938VX-59" value="" style="whiteSpace=wrap;html=1;aspect=fixed;sketch=1;curveFitting=1;jiggle=2;labelBackgroundColor=none;" parent="1" vertex="1">
          <mxGeometry x="1070" y="40" width="1060" height="1060" as="geometry" />
        </mxCell>
        <mxCell id="UEqttB7jB4Lhrfj938VX-60" value="" style="whiteSpace=wrap;html=1;aspect=fixed;sketch=1;curveFitting=1;jiggle=2;labelBackgroundColor=none;" parent="1" vertex="1">
          <mxGeometry x="2130" y="40" width="970" height="970" as="geometry" />
        </mxCell>
        <mxCell id="UEqttB7jB4Lhrfj938VX-61" value="" style="whiteSpace=wrap;html=1;aspect=fixed;sketch=1;curveFitting=1;jiggle=2;labelBackgroundColor=none;" parent="1" vertex="1">
          <mxGeometry x="3190" y="40" width="970" height="970" as="geometry" />
        </mxCell>
        <mxCell id="UEqttB7jB4Lhrfj938VX-65" value="" style="verticalLabelPosition=bottom;verticalAlign=top;html=1;shape=mxgraph.basic.patternFillRect;fillStyle=diagGrid;step=5;fillStrokeWidth=0.2;fillStrokeColor=#dddddd;sketch=1;curveFitting=1;jiggle=2;labelBackgroundColor=none;fillColor=#b1ddf0;strokeColor=#10739e;" parent="1" vertex="1">
          <mxGeometry x="1070" y="40" width="970" height="200" as="geometry" />
        </mxCell>
        <mxCell id="UEqttB7jB4Lhrfj938VX-66" value="" style="verticalLabelPosition=bottom;verticalAlign=top;html=1;shape=mxgraph.basic.patternFillRect;fillStyle=diagGrid;step=5;fillStrokeWidth=0.2;fillStrokeColor=#dddddd;sketch=1;curveFitting=1;jiggle=2;labelBackgroundColor=none;fillColor=#b1ddf0;strokeColor=#10739e;" parent="1" vertex="1">
          <mxGeometry x="2130" y="40" width="970" height="200" as="geometry" />
        </mxCell>
        <mxCell id="UEqttB7jB4Lhrfj938VX-67" value="" style="verticalLabelPosition=bottom;verticalAlign=top;html=1;shape=mxgraph.basic.patternFillRect;fillStyle=diagGrid;step=5;fillStrokeWidth=0.2;fillStrokeColor=#dddddd;sketch=1;curveFitting=1;jiggle=2;labelBackgroundColor=none;fillColor=#b1ddf0;strokeColor=#10739e;" parent="1" vertex="1">
          <mxGeometry x="3190" y="40" width="970" height="200" as="geometry" />
        </mxCell>
        <mxCell id="UEqttB7jB4Lhrfj938VX-86" value="&lt;b&gt;&lt;font style=&quot;font-size: 38px;&quot;&gt;BANNER&lt;/font&gt;&lt;/b&gt;" style="text;strokeColor=none;fillColor=none;align=left;verticalAlign=middle;spacingLeft=4;spacingRight=4;overflow=hidden;points=[[0,0.5],[1,0.5]];portConstraint=eastwest;rotatable=0;whiteSpace=wrap;html=1;fontSize=20;fontFamily=Architects Daughter;" parent="1" vertex="1">
          <mxGeometry x="1110" y="120" width="320" height="50" as="geometry" />
        </mxCell>
        <mxCell id="UEqttB7jB4Lhrfj938VX-87" value="" style="rounded=1;whiteSpace=wrap;html=1;sketch=1;hachureGap=4;jiggle=2;curveFitting=1;fontFamily=Architects Daughter;fontSource=https%3A%2F%2Ffonts.googleapis.com%2Fcss%3Ffamily%3DArchitects%2BDaughter;fontSize=20;" parent="1" vertex="1">
          <mxGeometry x="1200" y="314.99" width="370" height="185.01" as="geometry" />
        </mxCell>
        <mxCell id="UEqttB7jB4Lhrfj938VX-88" value="" style="rounded=1;whiteSpace=wrap;html=1;sketch=1;hachureGap=4;jiggle=2;curveFitting=1;fontFamily=Architects Daughter;fontSource=https%3A%2F%2Ffonts.googleapis.com%2Fcss%3Ffamily%3DArchitects%2BDaughter;fontSize=20;" parent="1" vertex="1">
          <mxGeometry x="810" y="1050" width="210" height="140" as="geometry" />
        </mxCell>
        <mxCell id="UEqttB7jB4Lhrfj938VX-89" value="" style="rounded=1;whiteSpace=wrap;html=1;sketch=1;hachureGap=4;jiggle=2;curveFitting=1;fontFamily=Architects Daughter;fontSource=https%3A%2F%2Ffonts.googleapis.com%2Fcss%3Ffamily%3DArchitects%2BDaughter;fontSize=20;" parent="1" vertex="1">
          <mxGeometry x="1750" y="1100" width="210" height="140" as="geometry" />
        </mxCell>
        <mxCell id="UEqttB7jB4Lhrfj938VX-90" value="" style="rounded=1;whiteSpace=wrap;html=1;sketch=1;hachureGap=4;jiggle=2;curveFitting=1;fontFamily=Architects Daughter;fontSource=https%3A%2F%2Ffonts.googleapis.com%2Fcss%3Ffamily%3DArchitects%2BDaughter;fontSize=20;" parent="1" vertex="1">
          <mxGeometry x="1190" y="542.75" width="360" height="147.25" as="geometry" />
        </mxCell>
        <mxCell id="UEqttB7jB4Lhrfj938VX-91" value="" style="rounded=1;whiteSpace=wrap;html=1;sketch=1;hachureGap=4;jiggle=2;curveFitting=1;fontFamily=Architects Daughter;fontSource=https%3A%2F%2Ffonts.googleapis.com%2Fcss%3Ffamily%3DArchitects%2BDaughter;fontSize=20;" parent="1" vertex="1">
          <mxGeometry x="1190" y="750" width="380" height="130" as="geometry" />
        </mxCell>
        <mxCell id="UEqttB7jB4Lhrfj938VX-92" value="" style="rounded=1;whiteSpace=wrap;html=1;sketch=1;hachureGap=4;jiggle=2;curveFitting=1;fontFamily=Architects Daughter;fontSource=https%3A%2F%2Ffonts.googleapis.com%2Fcss%3Ffamily%3DArchitects%2BDaughter;fontSize=20;" parent="1" vertex="1">
          <mxGeometry x="1200" y="920" width="390" height="120" as="geometry" />
        </mxCell>
        <mxCell id="UEqttB7jB4Lhrfj938VX-93" value="&lt;b&gt;&lt;font style=&quot;font-size: 38px;&quot;&gt;BANNER&lt;/font&gt;&lt;/b&gt;" style="text;strokeColor=none;fillColor=none;align=left;verticalAlign=middle;spacingLeft=4;spacingRight=4;overflow=hidden;points=[[0,0.5],[1,0.5]];portConstraint=eastwest;rotatable=0;whiteSpace=wrap;html=1;fontSize=20;fontFamily=Architects Daughter;" parent="1" vertex="1">
          <mxGeometry x="2170" y="120" width="550" height="50" as="geometry" />
        </mxCell>
        <mxCell id="UEqttB7jB4Lhrfj938VX-94" value="" style="rounded=1;whiteSpace=wrap;html=1;sketch=1;hachureGap=4;jiggle=2;curveFitting=1;fontFamily=Architects Daughter;fontSource=https%3A%2F%2Ffonts.googleapis.com%2Fcss%3Ffamily%3DArchitects%2BDaughter;fontSize=20;" parent="1" vertex="1">
          <mxGeometry x="2210" y="300" width="210" height="140" as="geometry" />
        </mxCell>
        <mxCell id="UEqttB7jB4Lhrfj938VX-95" value="" style="rounded=1;whiteSpace=wrap;html=1;sketch=1;hachureGap=4;jiggle=2;curveFitting=1;fontFamily=Architects Daughter;fontSource=https%3A%2F%2Ffonts.googleapis.com%2Fcss%3Ffamily%3DArchitects%2BDaughter;fontSize=20;" parent="1" vertex="1">
          <mxGeometry x="2210" y="490" width="210" height="140" as="geometry" />
        </mxCell>
        <mxCell id="UEqttB7jB4Lhrfj938VX-96" value="" style="rounded=1;whiteSpace=wrap;html=1;sketch=1;hachureGap=4;jiggle=2;curveFitting=1;fontFamily=Architects Daughter;fontSource=https%3A%2F%2Ffonts.googleapis.com%2Fcss%3Ffamily%3DArchitects%2BDaughter;fontSize=20;" parent="1" vertex="1">
          <mxGeometry x="2650" y="300" width="210" height="140" as="geometry" />
        </mxCell>
        <mxCell id="UEqttB7jB4Lhrfj938VX-97" value="" style="rounded=1;whiteSpace=wrap;html=1;sketch=1;hachureGap=4;jiggle=2;curveFitting=1;fontFamily=Architects Daughter;fontSource=https%3A%2F%2Ffonts.googleapis.com%2Fcss%3Ffamily%3DArchitects%2BDaughter;fontSize=20;" parent="1" vertex="1">
          <mxGeometry x="2650" y="490" width="210" height="140" as="geometry" />
        </mxCell>
        <mxCell id="UEqttB7jB4Lhrfj938VX-98" value="" style="rounded=1;whiteSpace=wrap;html=1;sketch=1;hachureGap=4;jiggle=2;curveFitting=1;fontFamily=Architects Daughter;fontSource=https%3A%2F%2Ffonts.googleapis.com%2Fcss%3Ffamily%3DArchitects%2BDaughter;fontSize=20;" parent="1" vertex="1">
          <mxGeometry x="2650" y="680" width="210" height="140" as="geometry" />
        </mxCell>
        <mxCell id="UEqttB7jB4Lhrfj938VX-99" value="" style="rounded=1;whiteSpace=wrap;html=1;sketch=1;hachureGap=4;jiggle=2;curveFitting=1;fontFamily=Architects Daughter;fontSource=https%3A%2F%2Ffonts.googleapis.com%2Fcss%3Ffamily%3DArchitects%2BDaughter;fontSize=20;" parent="1" vertex="1">
          <mxGeometry x="2210" y="680" width="210" height="140" as="geometry" />
        </mxCell>
        <mxCell id="UEqttB7jB4Lhrfj938VX-101" value="&lt;span style=&quot;font-size: 38px;&quot;&gt;&lt;b&gt;BANNER&lt;/b&gt;&lt;/span&gt;" style="text;strokeColor=none;fillColor=none;align=left;verticalAlign=middle;spacingLeft=4;spacingRight=4;overflow=hidden;points=[[0,0.5],[1,0.5]];portConstraint=eastwest;rotatable=0;whiteSpace=wrap;html=1;fontSize=20;fontFamily=Architects Daughter;" parent="1" vertex="1">
          <mxGeometry x="3220" y="80" width="540" height="130" as="geometry" />
        </mxCell>
        <mxCell id="UEqttB7jB4Lhrfj938VX-102" value="" style="ellipse;whiteSpace=wrap;html=1;aspect=fixed;sketch=1;hachureGap=4;jiggle=2;curveFitting=1;fontFamily=Architects Daughter;fontSource=https%3A%2F%2Ffonts.googleapis.com%2Fcss%3Ffamily%3DArchitects%2BDaughter;fontSize=20;" parent="1" vertex="1">
          <mxGeometry x="3397.75" y="335.5" width="554.5" height="554.5" as="geometry" />
        </mxCell>
        <mxCell id="UEqttB7jB4Lhrfj938VX-109" value="" style="line;strokeWidth=4;direction=south;html=1;perimeter=backbonePerimeter;points=[];outlineConnect=0;sketch=1;hachureGap=4;jiggle=2;curveFitting=1;fontFamily=Architects Daughter;fontSource=https%3A%2F%2Ffonts.googleapis.com%2Fcss%3Ffamily%3DArchitects%2BDaughter;fontSize=20;" parent="1" vertex="1">
          <mxGeometry x="180" y="412.62" width="10" height="114.75" as="geometry" />
        </mxCell>
        <mxCell id="UEqttB7jB4Lhrfj938VX-110" value="" style="line;strokeWidth=4;direction=south;html=1;perimeter=backbonePerimeter;points=[];outlineConnect=0;sketch=1;hachureGap=4;jiggle=2;curveFitting=1;fontFamily=Architects Daughter;fontSource=https%3A%2F%2Ffonts.googleapis.com%2Fcss%3Ffamily%3DArchitects%2BDaughter;fontSize=20;" parent="1" vertex="1">
          <mxGeometry x="375" y="409.75" width="10" height="114.75" as="geometry" />
        </mxCell>
        <mxCell id="UEqttB7jB4Lhrfj938VX-112" value="" style="line;strokeWidth=4;direction=south;html=1;perimeter=backbonePerimeter;points=[];outlineConnect=0;sketch=1;hachureGap=4;jiggle=2;curveFitting=1;fontFamily=Architects Daughter;fontSource=https%3A%2F%2Ffonts.googleapis.com%2Fcss%3Ffamily%3DArchitects%2BDaughter;fontSize=20;" parent="1" vertex="1">
          <mxGeometry x="566" y="412.62" width="10" height="114.75" as="geometry" />
        </mxCell>
        <mxCell id="UEqttB7jB4Lhrfj938VX-115" value="" style="line;strokeWidth=4;direction=south;html=1;perimeter=backbonePerimeter;points=[];outlineConnect=0;sketch=1;hachureGap=4;jiggle=2;curveFitting=1;fontFamily=Architects Daughter;fontSource=https%3A%2F%2Ffonts.googleapis.com%2Fcss%3Ffamily%3DArchitects%2BDaughter;fontSize=20;" parent="1" vertex="1">
          <mxGeometry x="755" y="412.62" width="10" height="114.75" as="geometry" />
        </mxCell>
      </root>
    </mxGraphModel>
  </diagram>
</mxfile>
